<svg xmlns="http://www.w3.org/2000/svg" viewBox="0 0 24 24" width="96" height="96" shape-rendering="crispEdges">
  <rect width="24" height="24" fill="#0E0E10"/>
  <rect x="9" y="1" width="1" height="1" fill="#6FA84B"/>
  <rect x="13" y="1" width="1" height="1" fill="#6FA84B"/>
  <rect x="16" y="1" width="1" height="1" fill="#6FA84B"/>
  <rect x="8" y="2" width="10" height="1" fill="#6FA84B"/>
  <rect x="7" y="3" width="12" height="1" fill="#6FA84B"/>
  <rect x="7" y="4" width="12" height="1" fill="#4F8235"/>
  <rect x="6" y="5" width="14" height="7" fill="#E0D4C0"/>
  <rect x="6" y="12" width="14" height="2" fill="#C2B6A0"/>
  <rect x="8" y="7" width="2" height="2" fill="white"/>
  <rect x="9" y="8" width="1" height="1" fill="#111111"/>
  <rect x="14" y="7" width="2" height="2" fill="white"/>
  <rect x="15" y="8" width="1" height="1" fill="#111111"/>
  <rect x="9" y="11" width="1" height="1" fill="#0E0E10"/>
  <rect x="14" y="9" width="1" height="1" fill="#E8B04B"/>
  <rect x="13" y="10" width="1" height="1" fill="#E8B04B"/>
  <rect x="15" y="10" width="1" height="1" fill="#E8B04B"/>
  <rect x="12" y="11" width="1" height="1" fill="#E8B04B"/>
  <rect x="16" y="11" width="1" height="1" fill="#E8B04B"/>
  <rect x="13" y="11" width="2" height="2" fill="#0E0E10"/>
  <rect x="14" y="10" width="1" height="1" fill="#F4EEDE"/>
  <rect x="8" y="15" width="1" height="1" fill="#E3354E"/>
  <rect x="9" y="16" width="2" height="1" fill="#E3354E"/>
  <rect x="11" y="16" width="1" height="1" fill="#F4EEDE"/>
  <rect x="12" y="16" width="3" height="1" fill="#E3354E"/>
  <rect x="15" y="16" width="1" height="1" fill="#E3354E"/>
  <rect x="5" y="18" width="16" height="6" fill="#1A1A1E"/>
  <rect x="10" y="17" width="6" height="2" fill="#2A2A30"/>
  <text x="12" y="23" font-family="monospace" font-size="5" fill="#E8B04B" text-anchor="middle">♦</text>
</svg>
